<?xml version="1.0" encoding="iso-8859-1"?>
<!-- Generator: Adobe Illustrator 19.0.0, SVG Export Plug-In . SVG Version: 6.00 Build 0)  -->
<svg version="1.1" id="Layer_1" xmlns="http://www.w3.org/2000/svg" xmlns:xlink="http://www.w3.org/1999/xlink" x="0px" y="0px"
	 viewBox="0 0 512 512" style="enable-background:new 0 0 512 512;" xml:space="preserve">
<path style="fill:#FCE277;" d="M468.293,487.199H43.707C19.607,487.199,0,467.592,0,443.492V148.705
	c0-25.754,22.786-47.231,39.235-31.111L256,330.036l216.765-212.443c7.305-7.159,19.008-7.136,26.283,0.06
	C507.4,125.916,512,136.943,512,148.705v294.787C512,467.592,492.393,487.199,468.293,487.199z"/>
<path style="fill:#FDDC55;" d="M499.048,117.654c-7.275-7.195-18.978-7.22-26.283-0.06L256,330.036v157.163h212.293
	c24.1,0,43.707-19.607,43.707-43.707V148.705C512,136.943,507.4,125.916,499.048,117.654z"/>
<path style="fill:#FF9800;" d="M502.663,139.244c0.814-1.359,1.29-2.551,1.566-3.759c1.621-5.541,0.567-11.857-4.787-17.4
	c-0.129-0.135-0.244-0.281-0.377-0.413c-0.017-0.017-0.037-0.034-0.055-0.052c-0.009-0.009-0.015-0.017-0.024-0.026L449.55,69.141
	c-7.388-7.24-19.249-7.122-26.489,0.267c-7.24,7.389-7.122,19.249,0.267,26.489l9.627,9.435
	c-8.679,1.633-15.249,9.242-15.249,18.396v55.696c0,16.568,20.022,24.966,31.843,13.378c29.261-28.678,42.981-41.34,49.41-48.681
	C500.43,142.686,501.683,141.035,502.663,139.244z"/>
<path style="fill:#FDBF00;" d="M79.045,105.333l9.627-9.435c7.389-7.24,7.508-19.1,0.267-26.489
	c-7.242-7.389-19.1-7.509-26.489-0.267l-49.437,48.451c-0.009,0.009-0.015,0.017-0.024,0.026c-0.019,0.017-0.037,0.035-0.056,0.052
	c-0.139,0.137-0.258,0.288-0.392,0.43c-5.289,5.491-6.36,11.791-4.784,17.338c0.245,1.091,0.652,2.169,1.321,3.365
	c1.101,2.179,2.611,4.157,4.413,5.827c6.61,7.414,20.361,20.144,48.958,48.17c11.755,11.52,31.843,3.284,31.843-13.378v-55.696
	C94.295,114.576,87.724,106.967,79.045,105.333z"/>
<path style="fill:#E0E0E2;" d="M242.888,369.643C46.644,177.311,56.832,190.353,56.832,179.425V43.532
	c0-10.345,8.387-18.732,18.732-18.732h360.873c10.345,0,18.732,8.387,18.732,18.732v135.892c0,11.135,9.716-1.652-186.057,190.218
	C261.827,376.781,250.173,376.781,242.888,369.643z"/>
<path style="fill:#C7C5CA;" d="M455.168,179.425V43.532c0-10.345-8.387-18.732-18.732-18.732H256v350.195
	c4.734,0,9.47-1.784,13.111-5.353C464.883,177.773,455.168,190.561,455.168,179.425z"/>
<g>
	<path style="fill:#797680;" d="M299.488,135.213h-86.975c-10.345,0-18.732-8.387-18.732-18.732s8.387-18.732,18.732-18.732h86.975
		c10.345,0,18.732,8.387,18.732,18.732C318.219,126.827,309.832,135.213,299.488,135.213z"/>
	<path style="fill:#797680;" d="M345.898,206.643H166.102c-10.345,0-18.732-8.387-18.732-18.732s8.387-18.732,18.732-18.732H345.9
		c10.345,0,18.732,8.387,18.732,18.732C364.63,198.256,356.243,206.643,345.898,206.643z"/>
</g>
<g>
	<path style="fill:#56565C;" d="M299.488,97.75H256v37.463h43.488c10.345,0,18.732-8.387,18.732-18.732S309.832,97.75,299.488,97.75
		z"/>
	<path style="fill:#56565C;" d="M345.898,169.18H256v37.463h89.898c10.345,0,18.732-8.387,18.732-18.732
		S356.243,169.18,345.898,169.18z"/>
</g>
<g>
</g>
<g>
</g>
<g>
</g>
<g>
</g>
<g>
</g>
<g>
</g>
<g>
</g>
<g>
</g>
<g>
</g>
<g>
</g>
<g>
</g>
<g>
</g>
<g>
</g>
<g>
</g>
<g>
</g>
</svg>
