<?xml version="1.0" encoding="iso-8859-1"?>
<!-- Generator: Adobe Illustrator 19.0.0, SVG Export Plug-In . SVG Version: 6.00 Build 0)  -->
<svg version="1.1" id="Layer_1" xmlns="http://www.w3.org/2000/svg" xmlns:xlink="http://www.w3.org/1999/xlink" x="0px" y="0px"
	 viewBox="0 0 512 512" style="enable-background:new 0 0 512 512;" xml:space="preserve">
<path style="fill:#0071CE;" d="M503.823,136.632c0-19.365-15.844-35.21-35.211-35.21H43.388c-19.366,0-35.211,15.844-35.211,35.21
	v238.735c0,19.365,15.844,35.21,35.211,35.21h425.224c19.366,0,35.211-15.844,35.211-35.21L503.823,136.632L503.823,136.632z"/>
<path style="fill:#0055B8;" d="M13.414,393.778c2.901,4.694,6.871,8.664,11.564,11.564l157.711-157.709l-11.564-11.564
	L13.414,393.778z M340.876,236.068l-11.564,11.564l157.71,157.71c4.694-2.901,8.664-6.87,11.564-11.564L340.876,236.068z"/>
<path style="fill:#00A8E1;" d="M468.612,101.423H43.388c-11.347,0-21.479,5.444-27.93,13.845l240.541,201.769L496.54,115.268
	C490.091,106.867,479.959,101.423,468.612,101.423z"/>
<path style="fill:#0071CE;" d="M468.612,101.423H43.388c-0.909,0-1.809,0.047-2.702,0.116l215.313,180.607l215.313-180.607
	C470.421,101.47,469.521,101.423,468.612,101.423z"/>
<path style="fill:#1E252B;" d="M468.612,93.245H43.388C19.463,93.245,0,112.709,0,136.632v238.735
	c0,23.924,19.463,43.387,43.388,43.387h425.224c23.924,0,43.388-19.463,43.388-43.387V136.632
	C512,112.709,492.536,93.245,468.612,93.245z M43.388,109.6h425.224c5.91,0,11.379,1.911,15.832,5.141L255.999,306.363
	L27.556,114.741C32.009,111.511,37.478,109.6,43.388,109.6z M495.645,375.368c0,14.906-12.126,27.032-27.033,27.032H43.388
	c-14.907,0.001-27.033-12.125-27.033-27.032V136.632c0-3.052,0.516-5.984,1.452-8.723l232.938,195.391
	c1.52,1.275,3.388,1.912,5.255,1.912c1.868,0,3.735-0.637,5.255-1.912L494.194,127.91c0.937,2.739,1.452,5.671,1.452,8.723v238.735
	H495.645z"/>
<g>
</g>
<g>
</g>
<g>
</g>
<g>
</g>
<g>
</g>
<g>
</g>
<g>
</g>
<g>
</g>
<g>
</g>
<g>
</g>
<g>
</g>
<g>
</g>
<g>
</g>
<g>
</g>
<g>
</g>
</svg>
