<svg id="Layer_1" data-name="Layer 1" xmlns="http://www.w3.org/2000/svg" viewBox="0 0 400 300" width="406" height="306" class="illustration styles_illustrationTablet__1DWOa"><ellipse cx="202.09" cy="251.42" rx="103.82" ry="11.07" fill="#e6e6e6" opacity="0.45"></ellipse><path d="M135.37,109.86a10.14,10.14,0,0,0-10.13-10.14,9.69,9.69,0,0,0-1.63.15,13.65,13.65,0,0,0-12-7.19l-.5,0a15.91,15.91,0,0,0,.5-3.93,16.21,16.21,0,0,0-32.41,0,15.91,15.91,0,0,0,.5,3.93l-.5,0a13.66,13.66,0,1,0,0,27.31h47.39v-.1A10.13,10.13,0,0,0,135.37,109.86Z" fill="#e6e6e6" opacity="0.37"></path><circle cx="198.39" cy="137.12" r="88.63" fill="#efefef"></circle><path d="M132.89,79.11s.78,12.78,9.56,9,20.59-8,19.32,6.07,5.75,16,15.66,12.46,5.11-4.47,5.75-17.26S167.2,75.91,169.76,67s22.52,1.72,15.57-17.51C185.33,49.45,150.36,52.34,132.89,79.11Z" fill="#cecece" opacity="0.37"></path><path d="M206.67,112.42a12.77,12.77,0,0,0-5.38,1.17c-3.5,1.67-7.72,5.7-5.33,15.32,3.84,15.39,10.23,4,18.54,5.84s27.16,3.8,17.9,20.74,1.27,20.45,10.22,16.3,2.88-20.77,12.15-13.42S253.39,188.88,276,180c0,0,26-39.36,0-85.79,0,0-11.78-22.55-21.05-14.56s3.49,8.44,4.76,17.62-4.12,20.36-11.52,10.06-4.9-9.39-16.72-10.66c-9.45-1-16,.11-16.19,8.13a7.74,7.74,0,0,1-7.63,7.58Z" fill="#cecece" opacity="0.37"></path><path d="M204.33,62.49s-9.19-2.56-9.07,8.63,6.2,10.54,12.91,7.66,1,6.4,13.74,3.84,13.74-5.55,10.87-10S225.11,51.3,204.33,62.49Z" fill="#cecece" opacity="0.37"></path><path d="M109.76,137.12s10.82-17.68,22.62-5.73-11.42,10,.51,21.54,20.24-15.22,27-5.05,19.88,17.07,4.45,26-6.19,21.38.91,18.74,19.74,15.36,0,26.5C165.2,219.14,107.29,198,109.76,137.12Z" fill="#cecece" opacity="0.37"></path><path d="M202.43,157.41s-12.15,0-12.18,11.5,22.68.63,17.39,13.1,7.14,15.83,14,10.63-5-20.82-3.85-31.86S203.78,152.29,202.43,157.41Z" fill="#cecece" opacity="0.37"></path><path d="M198.39,225.75s-7.83-8.26,9.25-10.18,17.46-10.86,23-14.7,17.34,9.7,17.34,9.7S226.14,230.18,198.39,225.75Z" fill="#cecece" opacity="0.37"></path><path d="M327.05,182.41a9.17,9.17,0,0,0-9.17-9.17,8.93,8.93,0,0,0-1.47.13,12.35,12.35,0,0,0-10.89-6.51l-.46,0a14.41,14.41,0,0,0,.46-3.56,14.68,14.68,0,0,0-29.35,0,14.41,14.41,0,0,0,.45,3.56l-.45,0a12.36,12.36,0,1,0,0,24.72h42.91v-.08A9.18,9.18,0,0,0,327.05,182.41Z" fill="#f7f7f7"></path><polygon points="130.6 128.59 196.6 132.82 263.8 110.67 171.84 77.51 130.6 128.59" fill="none" stroke="#24285b" stroke-linecap="round" stroke-linejoin="round" stroke-width="2" stroke-dasharray="2 10"></polygon><polyline points="130.6 128.59 145.64 183.25 228.98 203.15 263.8 110.67" fill="none" stroke="#24285b" stroke-linecap="round" stroke-linejoin="round" stroke-width="2" stroke-dasharray="2 10"></polyline><polyline points="145.64 183.25 195.15 132.82 228.98 203.15" fill="none" stroke="#24285b" stroke-linecap="round" stroke-linejoin="round" stroke-width="2" stroke-dasharray="2 10"></polyline><circle cx="263.8" cy="110.67" r="9.99" fill="#68e1fd"></circle><circle cx="145.64" cy="183.25" r="9.99" fill="#68e1fd"></circle><line x1="195.15" y1="132.82" x2="171.84" y2="77.51" fill="none" stroke-dasharray="2 10" stroke-linecap="round" stroke-linejoin="round" stroke-width="2" stroke="#24285b"></line><circle cx="228.98" cy="203.15" r="8.18" fill="#68e1fd"></circle><circle cx="130.6" cy="128.59" r="8.18" fill="#68e1fd"></circle><circle cx="195.15" cy="132.82" r="11.52" fill="#ffd200"></circle><circle cx="171.84" cy="77.51" r="9.99" fill="#68e1fd"></circle><path d="M117.27,235.77s-11-3-13.35-13.2c0,0,17-3.44,17.48,14.11Z" fill="#68e1fd" opacity="0.58"></path><path d="M118.62,234.69s-7.67-12.12-.92-23.45c0,0,12.92,8.21,7.18,23.47Z" fill="#68e1fd" opacity="0.73"></path><path d="M120.59,234.69s4-12.79,16.29-15.21c0,0,2.29,8.3-7.93,15.25Z" fill="#68e1fd"></path><polygon points="112.64 234.41 114.86 249.62 128.86 249.68 130.93 234.48 112.64 234.41" fill="#24285b"></polygon></svg>